# xmcd
#
# Track frame offsets:
# 150
# 18274
# 36370
# 64127
# 93295
#
# Disc length: 2209 seconds
#
#
# Revision: 2
# Processed by: cddbd v1.5.1PL2 Copyright (c) Steve Scherf et al.
# Submitted via: FreeRIP 2.941 
#
DISCID=37089f05
DTITLE=Artful Dodger and Robbie Craig Ft. Craig David - Woman Trouble
DYEAR=2000
DGENRE=2 Step
TTITLE0=Woman Trouble (Radio Edit)
TTITLE1=Woman Trouble (Original Version Radio Edit)
TTITLE2=Woman Trouble (Sunkids Future Discotech Edit)
TTITLE3=Woman Trouble (Wideboys Pickapocket Or Two Radio Edit)
TTITLE4=DATA
EXTD=
EXTT0=
EXTT1=
EXTT2=
EXTT3=
EXTT4=
PLAYORDER=
